<?xml version="1.0" encoding="iso-8859-1"?>
<!-- Generator: Adobe Illustrator 19.0.0, SVG Export Plug-In . SVG Version: 6.00 Build 0)  -->
<svg version="1.1" id="Capa_1" xmlns="http://www.w3.org/2000/svg" xmlns:xlink="http://www.w3.org/1999/xlink" x="0px" y="0px"
	 viewBox="0 0 480.01 480.01" style="enable-background:new 0 0 480.01 480.01;" xml:space="preserve">
<g>
	<g>
		<path d="M478.157,82.885l-40-48c-1.521-1.826-3.775-2.881-6.152-2.88h-160v-24c0-4.418-3.582-8-8-8h-48c-4.418,0-8,3.582-8,8v24
			h-40c-4.418,0-8,3.582-8,8v96c0,4.418,3.582,8,8,8h40v16h-160c-2.377-0.001-4.631,1.054-6.152,2.88l-40,48
			c-2.471,2.966-2.471,7.274,0,10.24l40,48c1.521,1.826,3.775,2.881,6.152,2.88h160v200c0,4.418,3.582,8,8,8h48c4.418,0,8-3.582,8-8
			v-200h40c4.418,0,8-3.582,8-8v-96c0-4.418-3.582-8-8-8h-40v-16h160c2.377,0.001,4.631-1.054,6.152-2.88l40-48
			C480.628,90.159,480.628,85.851,478.157,82.885z M224.005,16.005h32v16h-32V16.005z M256.005,464.005h-32v-192h32V464.005z
			 M304.005,176.005v80H51.757l-33.352-40l33.352-40H304.005z M224.005,160.005v-16h32v16H224.005z M428.269,128.005H176.005v-80
			h252.248l33.352,40L428.269,128.005z"/>
	</g>
</g>
<g>
</g>
<g>
</g>
<g>
</g>
<g>
</g>
<g>
</g>
<g>
</g>
<g>
</g>
<g>
</g>
<g>
</g>
<g>
</g>
<g>
</g>
<g>
</g>
<g>
</g>
<g>
</g>
<g>
</g>
</svg>
