<svg id="Capa_1" enable-background="new 0 0 512 512" height="512" viewBox="0 0 512 512" width="512" xmlns="http://www.w3.org/2000/svg"><g><g><path d="m512 256c0 141.38-114.62 256-256 256-33.76 0-66-6.54-95.51-18.42-94.08-37.85-160.49-129.96-160.49-237.58 0-141.39 114.61-256 256-256 6.74 0 13.43.26 20.04.78 132.01 10.21 235.96 120.57 235.96 255.22z" fill="#fd4755"/><path d="m512 256c0 141.38-114.62 256-256 256-33.76 0-66-6.54-95.51-18.42-.45-.19-.89-.38-1.34-.56 8.83-3.49 19.53-8.15 31.41-14.3 9.36-4.59 153.78-78.52 169.57-237.09 9.87-131.01-56.39-196.8-84.09-240.85 132.01 10.21 235.96 120.57 235.96 255.22z" fill="#fb2b3a"/><circle cx="255.996" cy="255.996" fill="#fed402" r="224.733"/><path d="m199.95 473.683c17.916 4.599 36.696 7.047 56.047 7.047 124.117 0 224.733-100.616 224.733-224.733 0-108.957-77.543-199.794-180.451-220.361 21.224 28.288 69.967 104.344 59.848 205.992-13.805 138.667-125.98 212.609-160.177 232.055z" fill="#f7bc09"/><g fill="#554e56"><path d="m255.996 304.606c-5.574 0-10.212-4.283-10.655-9.839l-10.28-128.842c-.975-12.218 8.678-22.672 20.935-22.672 12.257 0 21.91 10.453 20.935 22.672l-10.28 128.842c-.443 5.556-5.081 9.839-10.655 9.839z"/><circle cx="255.996" cy="351.953" r="16.787"/></g></g></g></svg>