<svg id="Layer_1" enable-background="new 0 0 512 512" height="512" viewBox="0 0 512 512" width="512" xmlns="http://www.w3.org/2000/svg"><g><path d="m357.084 254.76c-2.791 2.531-7.462 6.766-7.462 14.624 0 9.674 15 9.674 15 0 0-.999.086-1.288 2.538-3.511 9.461-8.579 9.47-20.659 0-29.247-3.187-2.89-3.188-4.132 0-7.021 2.791-2.53 7.462-6.765 7.462-14.622 0-9.674-15-9.674-15 0 0 .998-.086 1.287-2.537 3.509-9.461 8.579-9.472 20.659-.001 29.247 3.187 2.89 3.188 4.131 0 7.021z"/><path d="m437.084 281.961c-2.791 2.531-7.462 6.766-7.462 14.624 0 9.674 15 9.674 15 0 0-.999.086-1.288 2.538-3.511 9.461-8.579 9.47-20.66 0-29.247-3.187-2.89-3.188-4.132 0-7.021 2.791-2.53 7.462-6.765 7.462-14.622 0-9.674-15-9.674-15 0 0 .998-.086 1.287-2.537 3.509-9.461 8.579-9.472 20.659-.001 29.247 3.188 2.889 3.188 4.131 0 7.021z"/><path d="m397.084 210.284c-2.791 2.531-7.462 6.766-7.462 14.624 0 9.674 15 9.674 15 0 0-.999.086-1.288 2.538-3.511 9.461-8.579 9.47-20.66 0-29.247-3.187-2.89-3.188-4.131 0-7.021 2.791-2.53 7.462-6.765 7.462-14.622 0-9.674-15-9.674-15 0 0 .998-.086 1.287-2.537 3.509-9.461 8.579-9.472 20.658-.001 29.246 3.188 2.89 3.188 4.132 0 7.022z"/><path d="m202.187 391.334c-9.652 0-9.668 15 0 15 9.652 0 9.668-15 0-15z"/><path d="m202.187 433.316c-9.652 0-9.668 15 0 15 9.652 0 9.668-15 0-15z"/><path d="m202.187 475.299c-9.652 0-9.668 15 0 15 9.652 0 9.668-15 0-15z"/><path d="m246.171 391.334c-9.652 0-9.668 15 0 15 9.652 0 9.668-15 0-15z"/><path d="m246.171 433.316c-9.652 0-9.668 15 0 15 9.652 0 9.668-15 0-15z"/><path d="m246.171 475.299c-9.652 0-9.668 15 0 15 9.652 0 9.668-15 0-15z"/><path d="m244.838 220.286c2.929-2.929 2.929-7.677 0-10.606-2.928-2.929-7.677-2.929-10.606 0-5.543 5.542-14.562 5.543-20.106 0-2.929-2.929-7.678-2.929-10.606 0-2.929 2.929-2.929 7.678 0 10.606 5.696 5.696 13.177 8.543 20.659 8.543 7.481 0 14.964-2.848 20.659-8.543z"/><path d="m504.622 401.111h-15.757v-14.333c0-21.039-17.116-38.155-38.155-38.155h-24.051v-.543c0-13.326-10.841-24.167-24.167-24.167s-24.167 10.841-24.167 24.167v.543h-24.051c-3.118 0-6.147.385-9.05 1.094l-8.617-4.508c-.056-.029-.111-.057-.167-.085l-58.774-28.901v-39.555c0-6.986-7.875-8.813-12.924-5.776v-17.992c23.031-12.87 39.367-36.328 42.367-63.748h1.119c13.03 0 23.632-10.601 23.632-23.632s-10.602-23.632-23.632-23.632h-.609v-110.181c0-17.483-14.223-31.707-31.706-31.707h-103.468c-17.483 0-31.707 14.224-31.707 31.707v15.318c0 4.142 3.358 7.5 7.5 7.5s7.5-3.358 7.5-7.5v-15.318c0-9.212 7.495-16.707 16.707-16.707h103.468c9.212 0 16.706 7.495 16.706 16.707v83.416h-27.877v-17.322c0-4.142-3.357-7.5-7.5-7.5-4.142 0-7.5 3.358-7.5 7.5v17.321h-18.063v-61.167c0-4.142-3.358-7.5-7.5-7.5s-7.5 3.358-7.5 7.5v61.167h-18.063v-36.808c0-4.142-3.358-7.5-7.5-7.5s-7.5 3.358-7.5 7.5v36.808h-27.877v-28.167c0-4.142-3.358-7.5-7.5-7.5s-7.5 3.358-7.5 7.5v54.933h-.609c-13.03 0-23.631 10.601-23.631 23.632s10.601 23.632 23.631 23.632h1.119c3 27.42 19.336 50.878 42.367 63.748v17.991c-5.01-3.103-12.923-1.35-12.923 5.776v39.555l-61.467 30.225c-12.181 5.99-22.183 15.384-28.933 27.181l-4.568 8.027v-72.179c0-4.142-3.358-7.5-7.5-7.5h-2.093v-9.657c2.96-.543 5.854-1.412 8.653-2.6 6.187-2.626 10.401-8.168 11.275-14.825.871-6.638-1.761-13.059-7.041-17.177l-.681-.531c-1.749-1.364-3.724-2.361-5.814-2.979 2.039.204 4.134.082 6.189-.394 6.714-1.553 12.053-6.641 13.933-13.279 1.901-6.713.077-13.643-4.878-18.537-7.82-7.724-18.168-11.977-29.136-11.977-5.464 0-10.8 1.07-15.749 3.107v-18.292c0-27.287-42.76-27.666-42.76 0v45.659c0 8.552 2.537 17.141 7.335 24.837 3.288 5.273 5.025 11.345 5.025 17.559v19.084h-1.719c-4.142 0-7.5 3.358-7.5 7.5v155.129c0 23.527 19.14 42.668 42.667 42.668 12.96 0 25.062-5.784 33.201-15.869l35.578-44.078v56.962c0 9.674 15 9.674 15 0v-78.195c0-6.807-8.993-10.092-13.336-4.71l-48.914 60.6c-5.278 6.54-13.125 10.29-21.529 10.29-15.256 0-27.667-12.412-27.667-27.668v-147.626h42.46v116.87c0 9.674 15 9.674 15 0v-21.862l17.596-30.922c5.25-9.175 13.039-16.49 22.524-21.154l62.506-30.736 28.029 12.478-41.451 20.069c-2.588 1.253-4.231 3.875-4.231 6.75v136.03c0 9.674 15 9.674 15 0v-131.329l94.311-43.999 59.028 29.026c-7.913 6.996-12.916 17.212-12.916 28.58 0 .007.001.013.001.019v14.314h-15.758c-9.675 0-9.675 15 0 15h15.758v62.113c0 18.624 15.151 33.776 33.775 33.776h57.249c9.674 0 9.674-15 0-15h-57.249c-10.353 0-18.775-8.423-18.775-18.776v-83.946h142.745v83.946c0 10.353-8.423 18.776-18.776 18.776h-8.132c-9.675 0-9.675 15 0 15h8.132c18.624 0 33.776-15.152 33.776-33.776v-62.113h15.757c9.674 0 9.674-15-.001-15zm-477.139-99.134v-19.084c0-9.022-2.523-17.838-7.297-25.495-3.313-5.314-5.064-11.158-5.064-16.902v-45.659c0-8.174 12.76-8.327 12.76 0v31.77c0 2.991 1.882 5.741 4.626 6.929 2.735 1.184 5.911.635 8.091-1.396 4.926-4.59 11.33-7.118 18.031-7.118 6.997 0 13.601 2.717 18.596 7.649 3.287 3.247-1.781 9.258-5.32 5.684-4.045-4.085-9.659-6.061-15.397-5.419-22.597 2.581-20.768 37.266 2.121 37.266 3.031 0 8.608-3.125 11.161-.656 1.963 1.898 1.97 5.162-.869 6.367-3.26 1.383-6.723 2.085-10.292 2.085-4.088 0-7.5 3.412-7.5 7.5v16.479zm41.624-48.431c-3.014-.287-6.139.158-9.079 1.38-7.691 3.198-4.656-11.955 1.219-6.018 2.182 2.204 4.904 3.779 7.86 4.638zm247.753-88.026c0 4.76-3.872 8.632-8.632 8.632h-.609v-17.264h.609c4.76 0 8.632 3.872 8.632 8.632zm-24.241-35.398v11.766h-136.881v-11.766zm-161.121 35.398c0-4.76 3.872-8.632 8.631-8.632h.609v17.264h-.609c-4.759 0-8.631-3.872-8.631-8.632zm24.24 14.499v-23.13h136.881v23.13c0 37.738-30.702 68.441-68.44 68.441s-68.441-30.703-68.441-68.441zm42.877 79.419c8.061 2.601 16.648 4.021 25.563 4.021s17.502-1.42 25.563-4.022v18.255l-25.563 11.592-25.563-11.592zm-12.923 28.865 1.286.583c.648.43 1.368.756 2.136.968l27.565 12.5v27.461l-30.987-13.795zm76.974 27.718-30.987 13.795v-27.461l27.566-12.5c.767-.213 1.487-.539 2.134-.968l1.287-.583zm130.659 32.058c0-5.055 4.112-9.167 9.167-9.167s9.167 4.112 9.167 9.167v.543h-18.334zm-60.96 31.199c3.124-9.098 11.766-15.655 21.909-15.655h96.436c10.144 0 18.785 6.557 21.909 15.655z"/><path d="m454.013 474.363c4.143 0 7.5-3.358 7.5-7.5v-42.732c0-4.142-3.357-7.5-7.5-7.5s-7.5 3.358-7.5 7.5v42.732c0 4.142 3.357 7.5 7.5 7.5z"/></g></svg>