<svg height="423pt" viewBox="-95 0 423 423.25333" width="423pt" xmlns="http://www.w3.org/2000/svg"><path d="m116.179688 423.253906c-56.261719 0-116.054688-16.746094-116.054688-47.789062 0-20.65625 28.382812-37.792969 74.066406-44.730469 3.730469-.578125 7.207032 1.996094 7.773438 5.726563.566406 3.726562-1.992188 7.207031-5.71875 7.773437-41.011719 6.226563-62.464844 20.421875-62.464844 31.230469 0 16.113281 43.792969 34.136718 102.398438 34.136718 58.605468 0 102.398437-18.023437 102.398437-34.136718 0-10.3125-20.226563-24.15625-58.886719-30.660156-3.71875-.625-6.222656-4.144532-5.597656-7.863282.625-3.714844 4.085938-6.226562 7.867188-5.601562 44 7.402344 70.273437 23.898437 70.273437 44.125 0 31.042968-59.792969 47.789062-116.054687 47.789062zm0 0"/><path d="m116.179688 395.945312c-32.878907 0-68.265626-8.546874-68.265626-27.304687 0-6.152344 3.972657-14.796875 22.914063-21.039063 3.597656-1.175781 7.445313.761719 8.625 4.34375 1.179687 3.582032-.765625 7.441407-4.347656 8.621094-11.183594 3.6875-13.539063 7.480469-13.539063 8.074219 0 3.511719 18.78125 13.652344 54.613282 13.652344 35.832031 0 54.613281-10.140625 54.613281-13.652344 0-.527344-2.03125-3.9375-11.707031-7.445313-3.546876-1.28125-5.371094-5.199218-4.089844-8.742187 1.285156-3.542969 5.207031-5.382813 8.746094-4.089844 17.113281 6.203125 20.703124 14.449219 20.703124 20.277344 0 18.757813-35.382812 27.304687-68.265624 27.304687zm0 0"/><path d="m157.140625 375.464844h-81.921875c-3.773438 0-6.824219-3.054688-6.824219-6.824219v-88.746094h-34.132812c-3.773438 0-6.828125-3.058593-6.828125-6.828125v-93.03125c0-42.808594 34.824218-77.636718 77.632812-77.636718h22.226563c42.808593 0 77.632812 34.828124 77.632812 77.636718v93.03125c0 3.769532-3.050781 6.828125-6.824219 6.828125h-34.136718v88.746094c0 3.769531-3.050782 6.824219-6.824219 6.824219zm-75.09375-13.652344h68.265625v-88.746094c0-3.769531 3.054688-6.828125 6.828125-6.828125h34.132813v-86.203125c0-35.277344-28.699219-63.980468-63.980469-63.980468h-22.226563c-35.28125 0-63.980468 28.703124-63.980468 63.980468v86.203125h34.132812c3.773438 0 6.828125 3.058594 6.828125 6.828125zm0 0"/><path d="m116.179688 122.878906c-33.878907 0-61.441407-27.5625-61.441407-61.4375 0-33.878906 27.5625-61.441406 61.441407-61.441406 33.882812 0 61.441406 27.5625 61.441406 61.441406 0 33.875-27.558594 61.4375-61.441406 61.4375zm0-109.226562c-26.347657 0-47.785157 21.4375-47.785157 47.789062 0 26.347656 21.4375 47.785156 47.785157 47.785156 26.347656 0 47.785156-21.4375 47.785156-47.785156 0-26.351562-21.4375-47.789062-47.785156-47.789062zm0 0"/><path d="m157.140625 314.027344c-3.773437 0-6.828125-3.058594-6.828125-6.828125v-68.265625c0-3.769532 3.054688-6.828125 6.828125-6.828125s6.824219 3.058593 6.824219 6.828125v68.265625c0 3.769531-3.050782 6.828125-6.824219 6.828125zm0 0"/><path d="m75.21875 327.679688c-3.773438 0-6.824219-3.054688-6.824219-6.828126v-81.917968c0-3.769532 3.050781-6.828125 6.824219-6.828125s6.828125 3.058593 6.828125 6.828125v81.917968c0 3.773438-3.054687 6.828126-6.828125 6.828126zm0 0"/></svg>