<svg
    xmlns="http://www.w3.org/2000/svg"
    viewBox="0 0 480 480"
    id="vector">
    <path
        id="path"
        d="M 478.157 82.885 L 438.157 34.885 C 436.636 33.059 434.382 32.004 432.005 32.005 L 272.005 32.005 L 272.005 8.005 C 272.005 3.587 268.423 0.005 264.005 0.005 L 216.005 0.005 C 211.587 0.005 208.005 3.587 208.005 8.005 L 208.005 32.005 L 168.005 32.005 C 163.587 32.005 160.005 35.587 160.005 40.005 L 160.005 136.005 C 160.005 140.423 163.587 144.005 168.005 144.005 L 208.005 144.005 L 208.005 160.005 L 48.005 160.005 C 45.628 160.004 43.374 161.059 41.853 162.885 L 1.853 210.885 C -0.618 213.851 -0.618 218.159 1.853 221.125 L 41.853 269.125 C 43.374 270.951 45.628 272.006 48.005 272.005 L 208.005 272.005 L 208.005 472.005 C 208.005 476.423 211.587 480.005 216.005 480.005 L 264.005 480.005 C 268.423 480.005 272.005 476.423 272.005 472.005 L 272.005 272.005 L 312.005 272.005 C 316.423 272.005 320.005 268.423 320.005 264.005 L 320.005 168.005 C 320.005 163.587 316.423 160.005 312.005 160.005 L 272.005 160.005 L 272.005 144.005 L 432.005 144.005 C 434.382 144.006 436.636 142.951 438.157 141.125 L 478.157 93.125 C 480.628 90.159 480.628 85.851 478.157 82.885 Z M 224.005 16.005 L 256.005 16.005 L 256.005 32.005 L 224.005 32.005 L 224.005 16.005 Z M 256.005 464.005 L 224.005 464.005 L 224.005 272.005 L 256.005 272.005 L 256.005 464.005 Z M 304.005 176.005 L 304.005 256.005 L 51.757 256.005 L 18.405 216.005 L 51.757 176.005 L 304.005 176.005 Z M 224.005 160.005 L 224.005 144.005 L 256.005 144.005 L 256.005 160.005 L 224.005 160.005 Z M 428.269 128.005 L 176.005 128.005 L 176.005 48.005 L 428.253 48.005 L 461.605 88.005 L 428.269 128.005 Z"
        fill="#000000"/>
</svg>
