<svg
    xmlns="http://www.w3.org/2000/svg"
    viewBox="0 0 423 423"
    id="vector">
    <path
        id="path"
        d="M 211.18 423.254 C 154.918 423.254 95.125 406.508 95.125 375.465 C 95.125 354.809 123.508 337.672 169.191 330.735 C 172.921 330.157 176.398 332.731 176.964 336.462 C 177.53 340.189 174.972 343.669 171.245 344.235 C 130.233 350.462 108.78 364.657 108.78 375.465 C 108.78 391.578 152.573 409.602 211.178 409.602 C 269.783 409.602 313.576 391.579 313.576 375.465 C 313.576 365.152 293.349 351.309 254.689 344.805 C 250.97 344.18 248.466 340.66 249.091 336.942 C 249.716 333.227 253.177 330.715 256.958 331.34 C 300.958 338.742 327.231 355.238 327.231 375.465 C 327.231 406.508 267.438 423.254 211.176 423.254 Z M 211.18 423.254"
        fill="#000000"/>
    <path
        id="path_1"
        d="M 211.18 395.945 C 178.301 395.945 142.914 387.398 142.914 368.64 C 142.914 362.488 146.887 353.843 165.828 347.601 C 169.426 346.425 173.273 348.363 174.453 351.945 C 175.633 355.527 173.687 359.386 170.105 360.566 C 158.921 364.254 156.566 368.046 156.566 368.64 C 156.566 372.152 175.347 382.292 211.179 382.292 C 247.011 382.292 265.792 372.151 265.792 368.64 C 265.792 368.113 263.761 364.702 254.085 361.195 C 250.538 359.914 248.714 355.996 249.995 352.453 C 251.28 348.91 255.202 347.07 258.741 348.363 C 275.854 354.566 279.444 362.812 279.444 368.64 C 279.444 387.398 244.061 395.945 211.178 395.945 Z M 211.18 395.945"
        fill="#000000"/>
    <path
        id="path_2"
        d="M 252.141 375.465 L 170.219 375.465 C 166.446 375.465 163.395 372.41 163.395 368.641 L 163.395 279.895 L 129.262 279.895 C 125.489 279.895 122.434 276.836 122.434 273.067 L 122.434 180.036 C 122.434 137.227 157.258 102.399 200.067 102.399 L 222.294 102.399 C 265.103 102.399 299.927 137.227 299.927 180.036 L 299.927 273.067 C 299.927 276.837 296.876 279.895 293.103 279.895 L 258.966 279.895 L 258.966 368.641 C 258.966 372.411 255.915 375.465 252.142 375.465 Z M 177.047 361.813 L 245.313 361.813 L 245.313 273.067 C 245.313 269.297 248.368 266.239 252.141 266.239 L 286.274 266.239 L 286.274 180.036 C 286.274 144.759 257.575 116.056 222.294 116.056 L 200.067 116.056 C 164.786 116.056 136.087 144.759 136.087 180.036 L 136.087 266.239 L 170.22 266.239 C 173.993 266.239 177.048 269.298 177.048 273.067 Z M 177.047 361.813"
        fill="#000000"/>
    <path
        id="path_3"
        d="M 211.18 122.879 C 177.301 122.879 149.739 95.316 149.739 61.441 C 149.739 27.562 177.302 0 211.18 0 C 245.063 0 272.621 27.563 272.621 61.441 C 272.621 95.316 245.062 122.879 211.18 122.879 Z M 211.18 13.652 C 184.832 13.652 163.395 35.09 163.395 61.441 C 163.395 87.789 184.833 109.226 211.18 109.226 C 237.528 109.226 258.965 87.788 258.965 61.441 C 258.965 35.089 237.527 13.652 211.18 13.652 Z M 211.18 13.652"
        fill="#000000"/>
    <path
        id="path_4"
        d="M 252.141 314.027 C 248.368 314.027 245.313 310.968 245.313 307.199 L 245.313 238.933 C 245.313 235.163 248.368 232.105 252.141 232.105 C 255.914 232.105 258.965 235.164 258.965 238.933 L 258.965 307.199 C 258.965 310.969 255.914 314.027 252.141 314.027 Z M 252.141 314.027"
        fill="#000000"/>
    <path
        id="path_5"
        d="M 170.219 327.68 C 166.446 327.68 163.395 324.625 163.395 320.852 L 163.395 238.934 C 163.395 235.164 166.446 232.106 170.219 232.106 C 173.992 232.106 177.047 235.165 177.047 238.934 L 177.047 320.852 C 177.047 324.625 173.992 327.68 170.219 327.68 Z M 170.219 327.68"
        fill="#000000"/>
</svg>
