<svg
    xmlns="http://www.w3.org/2000/svg"
    viewBox="0 0 512 512"
    id="vector">
    <path
        id="path"
        d="M 357.084 254.76 C 354.293 257.291 349.622 261.526 349.622 269.384 C 349.622 279.058 364.622 279.058 364.622 269.384 C 364.622 268.385 364.708 268.096 367.16 265.873 C 376.621 257.294 376.63 245.214 367.16 236.626 C 363.973 233.736 363.972 232.494 367.16 229.605 C 369.951 227.075 374.622 222.84 374.622 214.983 C 374.622 205.309 359.622 205.309 359.622 214.983 C 359.622 215.981 359.536 216.27 357.085 218.492 C 347.624 227.071 347.613 239.151 357.084 247.739 C 360.271 250.629 360.272 251.87 357.084 254.76 Z"
        fill="#000000"/>
    <path
        id="path_1"
        d="M 437.084 281.961 C 434.293 284.492 429.622 288.727 429.622 296.585 C 429.622 306.259 444.622 306.259 444.622 296.585 C 444.622 295.586 444.708 295.297 447.16 293.074 C 456.621 284.495 456.63 272.414 447.16 263.827 C 443.973 260.937 443.972 259.695 447.16 256.806 C 449.951 254.276 454.622 250.041 454.622 242.184 C 454.622 232.51 439.622 232.51 439.622 242.184 C 439.622 243.182 439.536 243.471 437.085 245.693 C 427.624 254.272 427.613 266.352 437.084 274.94 C 440.272 277.829 440.272 279.071 437.084 281.961 Z"
        fill="#000000"/>
    <path
        id="path_2"
        d="M 397.084 210.284 C 394.293 212.815 389.622 217.05 389.622 224.908 C 389.622 234.582 404.622 234.582 404.622 224.908 C 404.622 223.909 404.708 223.62 407.16 221.397 C 416.621 212.818 416.63 200.737 407.16 192.15 C 403.973 189.26 403.972 188.019 407.16 185.129 C 409.951 182.599 414.622 178.364 414.622 170.507 C 414.622 160.833 399.622 160.833 399.622 170.507 C 399.622 171.505 399.536 171.794 397.085 174.016 C 387.624 182.595 387.613 194.674 397.084 203.262 C 400.272 206.152 400.272 207.394 397.084 210.284 Z"
        fill="#000000"/>
    <path
        id="path_3"
        d="M 202.187 391.334 C 192.535 391.334 192.519 406.334 202.187 406.334 C 211.839 406.334 211.855 391.334 202.187 391.334 Z"
        fill="#000000"/>
    <path
        id="path_4"
        d="M 202.187 433.316 C 192.535 433.316 192.519 448.316 202.187 448.316 C 211.839 448.316 211.855 433.316 202.187 433.316 Z"
        fill="#000000"/>
    <path
        id="path_5"
        d="M 202.187 475.299 C 192.535 475.299 192.519 490.299 202.187 490.299 C 211.839 490.299 211.855 475.299 202.187 475.299 Z"
        fill="#000000"/>
    <path
        id="path_6"
        d="M 246.171 391.334 C 236.519 391.334 236.503 406.334 246.171 406.334 C 255.823 406.334 255.839 391.334 246.171 391.334 Z"
        fill="#000000"/>
    <path
        id="path_7"
        d="M 246.171 433.316 C 236.519 433.316 236.503 448.316 246.171 448.316 C 255.823 448.316 255.839 433.316 246.171 433.316 Z"
        fill="#000000"/>
    <path
        id="path_8"
        d="M 246.171 475.299 C 236.519 475.299 236.503 490.299 246.171 490.299 C 255.823 490.299 255.839 475.299 246.171 475.299 Z"
        fill="#000000"/>
    <path
        id="path_9"
        d="M 244.838 220.286 C 247.767 217.357 247.767 212.609 244.838 209.68 C 241.91 206.751 237.161 206.751 234.232 209.68 C 228.689 215.222 219.67 215.223 214.126 209.68 C 211.197 206.751 206.448 206.751 203.52 209.68 C 200.591 212.609 200.591 217.358 203.52 220.286 C 209.216 225.982 216.697 228.829 224.179 228.829 C 231.66 228.829 239.143 225.981 244.838 220.286 Z"
        fill="#000000"/>
    <path
        id="path_10"
        d="M 504.622 401.111 L 488.865 401.111 L 488.865 386.778 C 488.865 365.739 471.749 348.623 450.71 348.623 L 426.659 348.623 L 426.659 348.08 C 426.659 334.754 415.818 323.913 402.492 323.913 C 389.166 323.913 378.325 334.754 378.325 348.08 L 378.325 348.623 L 354.274 348.623 C 351.156 348.623 348.127 349.008 345.224 349.717 L 336.607 345.209 C 336.551 345.18 336.496 345.152 336.44 345.124 L 277.666 316.223 L 277.666 276.668 C 277.666 269.682 269.791 267.855 264.742 270.892 L 264.742 252.9 C 287.773 240.03 304.109 216.572 307.109 189.152 L 308.228 189.152 C 321.258 189.152 331.86 178.551 331.86 165.52 C 331.86 152.489 321.258 141.888 308.228 141.888 L 307.619 141.888 L 307.619 31.707 C 307.619 14.224 293.396 0 275.913 0 L 172.445 0 C 154.962 0 140.738 14.224 140.738 31.707 L 140.738 47.025 C 140.738 51.167 144.096 54.525 148.238 54.525 C 152.38 54.525 155.738 51.167 155.738 47.025 L 155.738 31.707 C 155.738 22.495 163.233 15 172.445 15 L 275.913 15 C 285.125 15 292.619 22.495 292.619 31.707 L 292.619 115.123 L 264.742 115.123 L 264.742 97.801 C 264.742 93.659 261.385 90.301 257.242 90.301 C 253.1 90.301 249.742 93.659 249.742 97.801 L 249.742 115.122 L 231.679 115.122 L 231.679 53.955 C 231.679 49.813 228.321 46.455 224.179 46.455 C 220.037 46.455 216.679 49.813 216.679 53.955 L 216.679 115.122 L 198.616 115.122 L 198.616 78.314 C 198.616 74.172 195.258 70.814 191.116 70.814 C 186.974 70.814 183.616 74.172 183.616 78.314 L 183.616 115.122 L 155.739 115.122 L 155.739 86.955 C 155.739 82.813 152.381 79.455 148.239 79.455 C 144.097 79.455 140.739 82.813 140.739 86.955 L 140.739 141.888 L 140.13 141.888 C 127.1 141.888 116.499 152.489 116.499 165.52 C 116.499 178.551 127.1 189.152 140.13 189.152 L 141.249 189.152 C 144.249 216.572 160.585 240.03 183.616 252.9 L 183.616 270.891 C 178.606 267.788 170.693 269.541 170.693 276.667 L 170.693 316.222 L 109.226 346.447 C 97.045 352.437 87.043 361.831 80.293 373.628 L 75.725 381.655 L 75.725 309.476 C 75.725 305.334 72.367 301.976 68.225 301.976 L 66.132 301.976 L 66.132 292.319 C 69.092 291.776 71.986 290.907 74.785 289.719 C 80.972 287.093 85.186 281.551 86.06 274.894 C 86.931 268.256 84.299 261.835 79.019 257.717 L 78.338 257.186 C 76.589 255.822 74.614 254.825 72.524 254.207 C 74.563 254.411 76.658 254.289 78.713 253.813 C 85.427 252.26 90.766 247.172 92.646 240.534 C 94.547 233.821 92.723 226.891 87.768 221.997 C 79.948 214.273 69.6 210.02 58.632 210.02 C 53.168 210.02 47.832 211.09 42.883 213.127 L 42.883 194.835 C 42.883 167.548 0.123 167.169 0.123 194.835 L 0.123 240.494 C 0.123 249.046 2.66 257.635 7.458 265.331 C 10.746 270.604 12.483 276.676 12.483 282.89 L 12.483 301.974 L 10.764 301.974 C 6.622 301.974 3.264 305.332 3.264 309.474 L 3.264 464.603 C 3.264 488.13 22.404 507.271 45.931 507.271 C 58.891 507.271 70.993 501.487 79.132 491.402 L 114.71 447.324 L 114.71 504.286 C 114.71 513.96 129.71 513.96 129.71 504.286 L 129.71 426.091 C 129.71 419.284 120.717 415.999 116.374 421.381 L 67.46 481.981 C 62.182 488.521 54.335 492.271 45.931 492.271 C 30.675 492.271 18.264 479.859 18.264 464.603 L 18.264 316.977 L 60.724 316.977 L 60.724 433.847 C 60.724 443.521 75.724 443.521 75.724 433.847 L 75.724 411.985 L 93.32 381.063 C 98.57 371.888 106.359 364.573 115.844 359.909 L 178.35 329.173 L 206.379 341.651 L 164.928 361.72 C 162.34 362.973 160.697 365.595 160.697 368.47 L 160.697 504.5 C 160.697 514.174 175.697 514.174 175.697 504.5 L 175.697 373.171 L 270.008 329.172 L 329.036 358.198 C 321.123 365.194 316.12 375.41 316.12 386.778 C 316.12 386.785 316.121 386.791 316.121 386.797 L 316.121 401.111 L 300.363 401.111 C 290.688 401.111 290.688 416.111 300.363 416.111 L 316.121 416.111 L 316.121 478.224 C 316.121 496.848 331.272 512 349.896 512 L 407.145 512 C 416.819 512 416.819 497 407.145 497 L 349.896 497 C 339.543 497 331.121 488.577 331.121 478.224 L 331.121 394.278 L 473.866 394.278 L 473.866 478.224 C 473.866 488.577 465.443 497 455.09 497 L 446.958 497 C 437.283 497 437.283 512 446.958 512 L 455.09 512 C 473.714 512 488.866 496.848 488.866 478.224 L 488.866 416.111 L 504.623 416.111 C 514.297 416.111 514.297 401.111 504.622 401.111 Z M 27.483 301.977 L 27.483 282.893 C 27.483 273.871 24.96 265.055 20.186 257.398 C 16.873 252.084 15.122 246.24 15.122 240.496 L 15.122 194.837 C 15.122 186.663 27.882 186.51 27.882 194.837 L 27.882 226.607 C 27.882 229.598 29.764 232.348 32.508 233.536 C 35.243 234.72 38.419 234.171 40.599 232.14 C 45.525 227.55 51.929 225.022 58.63 225.022 C 65.627 225.022 72.231 227.739 77.226 232.671 C 80.513 235.918 75.445 241.929 71.906 238.355 C 67.861 234.27 62.247 232.294 56.509 232.936 C 33.912 235.517 35.741 270.202 58.63 270.202 C 61.661 270.202 67.238 267.077 69.791 269.546 C 71.754 271.444 71.761 274.708 68.922 275.913 C 65.662 277.296 62.199 277.998 58.63 277.998 C 54.542 277.998 51.13 281.41 51.13 285.498 L 51.13 301.977 Z M 69.107 253.546 C 66.093 253.259 62.968 253.704 60.028 254.926 C 52.337 258.124 55.372 242.971 61.247 248.908 C 63.429 251.112 66.151 252.687 69.107 253.546 Z M 316.86 165.52 C 316.86 170.28 312.988 174.152 308.228 174.152 L 307.619 174.152 L 307.619 156.888 L 308.228 156.888 C 312.988 156.888 316.86 160.76 316.86 165.52 Z M 292.619 130.122 L 292.619 141.888 L 155.738 141.888 L 155.738 130.122 Z M 131.498 165.52 C 131.498 160.76 135.37 156.888 140.129 156.888 L 140.738 156.888 L 140.738 174.152 L 140.129 174.152 C 135.37 174.152 131.498 170.28 131.498 165.52 Z M 155.738 180.019 L 155.738 156.889 L 292.619 156.889 L 292.619 180.019 C 292.619 217.757 261.917 248.46 224.179 248.46 C 186.441 248.46 155.738 217.757 155.738 180.019 Z M 198.615 259.438 C 206.676 262.039 215.263 263.459 224.178 263.459 C 233.093 263.459 241.68 262.039 249.741 259.437 L 249.741 277.692 L 224.178 289.284 L 198.615 277.692 Z M 185.692 288.303 L 186.978 288.886 C 187.626 289.316 188.346 289.642 189.114 289.854 L 216.679 302.354 L 216.679 329.815 L 185.692 316.02 Z M 262.666 316.021 L 231.679 329.816 L 231.679 302.355 L 259.245 289.855 C 260.012 289.642 260.732 289.316 261.379 288.887 L 262.666 288.304 Z M 393.325 348.079 C 393.325 343.024 397.437 338.912 402.492 338.912 C 407.547 338.912 411.659 343.024 411.659 348.079 L 411.659 348.622 L 393.325 348.622 Z M 332.365 379.278 C 335.489 370.18 344.131 363.623 354.274 363.623 L 450.71 363.623 C 460.854 363.623 469.495 370.18 472.619 379.278 Z"
        fill="#000000"/>
    <path
        id="path_11"
        d="M 454.013 474.363 C 458.156 474.363 461.513 471.005 461.513 466.863 L 461.513 424.131 C 461.513 419.989 458.156 416.631 454.013 416.631 C 449.87 416.631 446.513 419.989 446.513 424.131 L 446.513 466.863 C 446.513 471.005 449.87 474.363 454.013 474.363 Z"
        fill="#000000"/>
</svg>
