<svg
    xmlns="http://www.w3.org/2000/svg"
    viewBox="0 0 512 512"
    id="vector">
    <path
        id="path"
        d="M 277.937 346 M 257.937 346 C 257.937 340.698 260.046 335.607 263.795 331.858 C 267.544 328.109 272.635 326 277.937 326 C 283.239 326 288.33 328.109 292.079 331.858 C 295.828 335.607 297.937 340.698 297.937 346 C 297.937 351.302 295.828 356.393 292.079 360.142 C 288.33 363.891 283.239 366 277.937 366 C 272.635 366 267.544 363.891 263.795 360.142 C 260.046 356.393 257.937 351.302 257.937 346"
        fill="#000000"/>
    <path
        id="path_1"
        d="M 344.937 471.999 L 95.937 471.999 C 73.881 471.999 55.937 454.055 55.937 431.999 L 55.937 267.999 C 55.937 245.943 73.881 227.999 95.937 227.999 L 383.937 227.999 C 388.491 227.999 392.104 228.401 394.984 229.226 C 405.602 232.268 416.676 226.126 419.719 215.508 C 422.761 204.89 416.619 193.816 406.001 190.773 C 399.488 188.907 392.271 188 383.937 188 L 359.9 188 L 359.9 117.466 C 359.9 52.695 306.068 0 239.9 0 C 173.732 0 119.9 52.695 119.9 117.466 L 119.9 188 L 95.937 188 C 51.825 188 15.937 223.888 15.937 268 L 15.937 432 C 15.937 476.112 51.825 512 95.937 512 L 344.937 512 C 355.983 512 364.937 503.046 364.937 492 C 364.937 480.954 355.983 472 344.937 471.999 Z M 159.9 117.466 C 159.9 74.751 195.788 40 239.9 40 C 284.012 40 319.9 74.751 319.9 117.466 L 319.9 188 L 159.9 188 L 159.9 117.466 Z"
        fill="#000000"/>
    <path
        id="path_2"
        d="M 202.937 346 M 182.937 346 C 182.937 340.698 185.046 335.607 188.795 331.858 C 192.544 328.109 197.635 326 202.937 326 C 208.239 326 213.33 328.109 217.079 331.858 C 220.828 335.607 222.937 340.698 222.937 346 C 222.937 351.302 220.828 356.393 217.079 360.142 C 213.33 363.891 208.239 366 202.937 366 C 197.635 366 192.544 363.891 188.795 360.142 C 185.046 356.393 182.937 351.302 182.937 346"
        fill="#000000"/>
    <path
        id="path_3"
        d="M 496.046 331.21 C 495.608 292.421 463.916 261 425.025 261 C 385.863 261 354 292.862 354 332.025 C 354 343.071 362.954 352.025 374 352.025 C 385.046 352.025 394 343.071 394 332.025 C 394 314.918 407.918 301 425.026 301 C 442.134 301 456.051 314.918 456.051 332.025 C 456.051 332.207 456.053 332.388 456.058 332.568 C 455.852 344.815 448.495 355.779 437.194 360.603 C 417.653 368.948 405.026 388.221 405.026 409.704 L 405.026 427 C 405.026 438.046 413.98 447 425.026 447 C 436.072 447 445.026 438.046 445.026 427 L 445.026 409.704 C 445.026 404.266 448.118 399.433 452.901 397.391 C 479.128 386.195 496.07 360.536 496.063 332.021 C 496.063 331.749 496.057 331.479 496.046 331.21 Z"
        fill="#000000"/>
    <path
        id="path_4"
        d="M 424.937 492 M 404.937 492 C 404.937 486.698 407.046 481.607 410.795 477.858 C 414.544 474.109 419.635 472 424.937 472 C 430.239 472 435.33 474.109 439.079 477.858 C 442.828 481.607 444.937 486.698 444.937 492 C 444.937 497.302 442.828 502.393 439.079 506.142 C 435.33 509.891 430.239 512 424.937 512 C 419.635 512 414.544 509.891 410.795 506.142 C 407.046 502.393 404.937 497.302 404.937 492"
        fill="#000000"/>
    <path
        id="path_5"
        d="M 127.937 346 M 107.937 346 C 107.924 341.768 109.254 337.64 111.734 334.212 C 114.215 330.784 117.721 328.23 121.745 326.919 C 125.768 325.609 130.106 325.609 134.129 326.919 C 138.153 328.23 141.659 330.784 144.14 334.212 C 146.62 337.64 147.95 341.768 147.937 346 C 147.937 351.302 145.828 356.393 142.079 360.142 C 138.33 363.891 133.239 366 127.937 366 C 122.635 366 117.544 363.891 113.795 360.142 C 110.046 356.393 107.937 351.302 107.937 346"
        fill="#000000"/>
</svg>
