<svg
    xmlns="http://www.w3.org/2000/svg"
    viewBox="0 0 512 512"
    id="vector">
    <path
        id="path"
        d="M 483.738 0 L 28.238 0 C 12.64 0.008 -0.004 12.66 0 28.262 L 0 483.762 C 0.008 499.36 12.66 512.004 28.262 512 L 483.739 512 C 499.344 512.004 511.997 499.355 512.001 483.75 C 512.001 483.746 512.001 483.742 512.001 483.738 L 512.001 28.238 C 511.993 12.64 499.341 -0.004 483.739 0 Z M 483.738 0"
        fill="#4267b2"/>
    <path
        id="path_1"
        d="M 353.5 512 L 353.5 314 L 420.25 314 L 430.25 236.5 L 353.5 236.5 L 353.5 187.141 C 353.5 164.754 359.715 149.5 391.816 149.5 L 432.5 149.5 L 432.5 80.371 C 425.422 79.43 401.137 77.324 372.879 77.324 C 313.879 77.324 273.5 113.324 273.5 179.465 L 273.5 236.5 L 207 236.5 L 207 314 L 273.5 314 L 273.5 512 Z M 353.5 512"
        fill="#ffffff"/>
</svg>
