<svg
    xmlns="http://www.w3.org/2000/svg"
    viewBox="0 0 512 512"
    id="vector">
    <path
        id="path"
        d="M 469.333 246.538 L 469.333 96 C 469.333 91.24 466.177 87.052 461.593 85.74 L 312.26 43.073 C 310.317 42.526 308.296 42.534 306.406 43.073 L 160 84.904 L 13.594 43.073 C 10.386 42.167 6.906 42.802 4.24 44.813 C 1.573 46.834 0 49.99 0 53.334 L 0 373.334 C 0 378.094 3.156 382.282 7.74 383.594 L 157.073 426.261 C 158.031 426.532 159.021 426.667 160 426.667 C 160.991 426.667 161.977 426.532 162.927 426.261 L 309.333 384.43 L 375.827 403.427 C 394.352 433.674 414.194 459.927 418.198 465.156 C 420.219 467.791 423.344 469.333 426.667 469.333 C 429.99 469.333 433.115 467.791 435.136 465.156 C 443 454.886 512 363.594 512 320 C 512 288.559 494.715 261.342 469.333 246.538 Z M 149.333 401.855 L 21.333 365.292 L 21.333 67.48 L 149.333 104.043 L 149.333 401.855 Z M 298.667 365.284 L 170.667 401.856 L 170.667 104.05 L 298.667 67.478 L 298.667 365.284 Z M 320 365.292 L 320 67.48 L 448 104.043 L 448 237.698 C 441.141 235.915 434.076 234.668 426.667 234.668 C 379.615 234.668 341.334 272.949 341.334 320.001 C 341.334 335.052 349.63 355.797 360.723 376.922 L 320 365.292 Z M 426.667 440.813 C 403.219 408.553 362.667 347.157 362.667 320 C 362.667 284.708 391.375 256 426.667 256 C 461.959 256 490.667 284.708 490.667 320 C 490.667 347.157 450.115 408.553 426.667 440.813 Z"
        fill="#000000"/>
    <path
        id="path_1"
        d="M 426.667 298.667 C 414.907 298.667 405.334 308.24 405.334 320 C 405.334 331.76 414.907 341.333 426.667 341.333 C 438.427 341.333 448 331.761 448 320 C 448 308.239 438.427 298.667 426.667 298.667 Z M 426.677 320 C 426.677 320 426.667 319.99 426.667 319.979 L 437.333 320 L 426.677 320 Z"
        fill="#000000"/>
</svg>
