<svg xmlns="http://www.w3.org/2000/svg" viewBox="0 0 64 64" width="64" height="64"><linearGradient id="DjbKL72WHFNr0kjQQabGqa" x1="46" x2="46" y1="30.667" y2="41.033" gradientUnits="userSpaceOnUse" spreadMethod="reflect"><stop offset="0" stop-color="#6dc7ff"/><stop offset="1" stop-color="#e6abff"/></linearGradient><path fill="url(#DjbKL72WHFNr0kjQQabGqa)" d="M46 32A4 4 0 1 0 46 40A4 4 0 1 0 46 32Z"/><linearGradient id="DjbKL72WHFNr0kjQQabGqb" x1="19" x2="19" y1="17" y2="26.672" gradientUnits="userSpaceOnUse" spreadMethod="reflect"><stop offset="0" stop-color="#6dc7ff"/><stop offset="1" stop-color="#e6abff"/></linearGradient><path fill="url(#DjbKL72WHFNr0kjQQabGqb)" d="M19 18A4 4 0 1 0 19 26A4 4 0 1 0 19 18Z"/><linearGradient id="DjbKL72WHFNr0kjQQabGqc" x1="19" x2="19" y1="7.833" y2="57" gradientUnits="userSpaceOnUse" spreadMethod="reflect"><stop offset="0" stop-color="#1a6dff"/><stop offset="1" stop-color="#c822ff"/></linearGradient><path fill="url(#DjbKL72WHFNr0kjQQabGqc)" d="M24,22c0-2.757-2.243-5-5-5s-5,2.243-5,5s2.243,5,5,5S24,24.757,24,22z M16,22 c0-1.654,1.346-3,3-3s3,1.346,3,3s-1.346,3-3,3S16,23.654,16,22z"/><linearGradient id="DjbKL72WHFNr0kjQQabGqd" x1="46" x2="46" y1="7.833" y2="57" gradientUnits="userSpaceOnUse" spreadMethod="reflect"><stop offset="0" stop-color="#1a6dff"/><stop offset="1" stop-color="#c822ff"/></linearGradient><path fill="url(#DjbKL72WHFNr0kjQQabGqd)" d="M51,36c0-2.757-2.243-5-5-5s-5,2.243-5,5s2.243,5,5,5S51,38.757,51,36z M43,36 c0-1.654,1.346-3,3-3s3,1.346,3,3s-1.346,3-3,3S43,37.654,43,36z"/><linearGradient id="DjbKL72WHFNr0kjQQabGqe" x1="32" x2="32" y1="7.833" y2="57" gradientUnits="userSpaceOnUse" spreadMethod="reflect"><stop offset="0" stop-color="#1a6dff"/><stop offset="1" stop-color="#c822ff"/></linearGradient><path fill="url(#DjbKL72WHFNr0kjQQabGqe)" d="M58,36c0-6.617-5.383-12-12-12s-12,5.383-12,12c0,6.63,4.75,13.654,8.499,17H20 c-1.103,0-2-0.897-2-2s0.897-2,2-2h4c2.206,0,4-1.794,4-4s-1.794-4-4-4h-1.475C26.516,37.635,32,30.379,32,22 c0-7.168-5.832-13-13-13S6,14.832,6,22c0,8.379,5.484,15.635,9.475,19H6v2h18c1.103,0,2,0.897,2,2s-0.897,2-2,2h-4 c-2.206,0-4,1.794-4,4s1.794,4,4,4h38v-2h-8.499C53.25,49.654,58,42.63,58,36z M8,22c0-6.065,4.935-11,11-11s11,4.935,11,11 c0,10.671-9.59,18.805-10.973,19h-0.005C17.59,40.805,8,32.671,8,22z M36,36c0-5.514,4.486-10,10-10s10,4.486,10,10 c0,8.507-8.512,16.773-9.971,17h-0.005C44.512,52.773,36,44.507,36,36z"/></svg>