<svg id="Layer_1" height="512" viewBox="0 0 512 512" width="512" xmlns="http://www.w3.org/2000/svg" xmlns:xlink="http://www.w3.org/1999/xlink" data-name="Layer 1"><linearGradient id="linear-gradient" gradientUnits="userSpaceOnUse" x1="256" x2="256" y1="472.594" y2="49.939"><stop offset=".322" stop-color="#a163f5"/><stop offset=".466" stop-color="#b074ee"/><stop offset=".752" stop-color="#d8a1dd"/><stop offset=".898" stop-color="#efbad3"/></linearGradient><linearGradient id="linear-gradient-2" x1="221.9" x2="221.9" xlink:href="#linear-gradient" y1="472.594" y2="49.939"/><path d="m324.049 98.49-63.549-80.167a6 6 0 0 0 -9.4 0l-63.7 80.365a204.642 204.642 0 0 0 -135.94 192.722c0 112.784 91.756 204.54 204.54 204.54s204.54-91.756 204.54-204.54a204.556 204.556 0 0 0 -136.491-192.92zm-68.249-66.782 48.242 60.859a205.74 205.74 0 0 0 -96.579.121zm.2 452.242c-106.167 0-192.54-86.588-192.54-192.755a193.1 193.1 0 0 1 129.532-182.195 193.007 193.007 0 0 1 255.548 182.356c0 106.167-86.373 192.594-192.54 192.594z" fill="url(#linear-gradient)"/><path d="m255.77 316a6.1 6.1 0 0 0 6.23-5.88v-82.85a6 6 0 1 0 -12 0v76.73h-62.2a6 6 0 0 0 0 12z" fill="url(#linear-gradient-2)"/><path d="m256 126.42a163.513 163.513 0 0 0 -71.149 16.086 6 6 0 0 0 5.181 10.825 151.244 151.244 0 0 1 58.968-14.743v7.412a6 6 0 0 0 12 0v-7.49a152.419 152.419 0 0 1 98.588 40.416l-5.451 5.451a6 6 0 0 0 8.486 8.486l5.466-5.466a152.4 152.4 0 0 1 40.805 98.603h-7.894a6 6 0 0 0 0 12h7.849a152.428 152.428 0 0 1 -40.844 97.52l-5.382-5.383a6 6 0 0 0 -8.486 8.486l5.362 5.361a152.414 152.414 0 0 1 -98.499 40.336v-7.32a6 6 0 0 0 -12 0v7.248a151.815 151.815 0 0 1 -97.068-40.694l4.931-4.931a6 6 0 0 0 -8.486-8.486l-4.917 4.917a151.794 151.794 0 0 1 -40.312-97.054h6.852a6 6 0 0 0 0-12h-6.9a152.507 152.507 0 0 1 40.255-98.158l5.02 5.021a6 6 0 0 0 8.486-8.486l-5.029-5.028a154.434 154.434 0 0 1 20.3-15.915 6 6 0 0 0 -6.587-10.032 164.662 164.662 0 0 0 -74.545 138.008v.612a165 165 0 0 0 165 164.388c90.981 0 165-74.018 165-165s-74.019-164.99-165-164.99z" fill="url(#linear-gradient)"/></svg>