<svg
    xmlns="http://www.w3.org/2000/svg"
    viewBox="0 0 512 512"
    id="vector">
    <path
        id="path"
        d="M 504.783 77.091 L 504.777 77.091 L 303.494 77.091 C 301.458 77.091 299.517 77.95 298.149 79.457 C 296.781 80.965 296.111 82.977 296.307 85.006 L 300.232 125.699 C 300.575 129.251 303.46 132.019 307.024 132.215 L 349.074 134.529 L 268.338 246.552 L 180.293 71.142 L 243.856 68.712 C 247.7 68.566 250.752 65.436 250.801 61.591 L 251.265 25.199 C 251.287 23.267 250.539 21.407 249.183 20.033 C 247.827 18.661 245.977 17.886 244.046 17.886 L 7.22 17.886 C 3.231 17.886 0 21.117 0 25.107 L 0 65.665 C 0 69.612 3.17 72.828 7.115 72.885 L 74.032 73.849 L 201.289 298.337 L 200.721 438.542 L 112.241 442.173 C 108.424 442.328 105.391 445.432 105.318 449.25 L 104.602 486.756 C 104.565 488.695 105.311 490.566 106.671 491.952 C 108.027 493.335 109.883 494.113 111.822 494.113 L 388.584 494.113 C 390.565 494.113 392.459 493.3 393.823 491.864 C 395.186 490.429 395.901 488.496 395.797 486.518 L 393.864 449.386 C 393.672 445.694 390.724 442.745 387.029 442.552 L 310.905 438.56 L 299.823 301.99 L 436.479 137.33 L 492.119 134.8 C 495.182 134.658 497.823 132.598 498.706 129.661 L 511.615 86.643 C 511.863 85.914 512 85.127 512 84.311 C 512 80.325 508.772 77.091 504.783 77.091 Z"
        fill="#7f40bd"/>
</svg>
